# Blender v3.0.0 OBJ File: ''
# www.blender.org
mtllib cornell_box.mtl
o area_light
v -2.858999 5.317235 -5.163144
v 2.390976 5.320598 -0.922789
v -2.858999 5.320598 -0.922789
v 2.390976 5.317235 -5.163144
vn 0.0000 -1.0000 0.0008
g area_light_area_light_Light
usemtl Light
s 1
f 1//1 2//1 3//1
f 1//1 4//1 2//1
o back_wall
v -2.950011 -0.162685 -5.835598
v 2.545989 5.325314 -5.839966
v -3.014011 5.325314 -5.839966
v 2.545989 -0.162685 -5.835598
vn 0.0000 0.0008 1.0000
g back_wall_back_wall_Khaki
usemtl Khaki
s 1
f 5//2 6//2 7//2
f 5//2 8//2 6//2
o ceiling
v -3.014011 5.325314 -5.839967
v 2.545989 5.329765 -0.247968
v -3.014011 5.329765 -0.247968
v 2.545989 5.325314 -5.839967
vn 0.0000 -1.0000 0.0008
g ceiling_ceiling_Khaki
usemtl Khaki
s 1
f 9//3 10//3 11//3
f 9//3 12//3 10//3
o floor
v 2.545989 -0.158233 -0.243599
v -2.950011 -0.162685 -5.835598
v -2.982011 -0.158233 -0.243599
v 2.545989 -0.162685 -5.835598
vn 0.0000 1.0000 -0.0008
g floor_floor_Khaki
usemtl Khaki
s 1
f 13//4 14//4 15//4
f 13//4 16//4 14//4
o left_wall
v -2.982011 -0.158233 -0.243599
v -3.014011 5.325314 -5.839967
v -3.014011 5.329765 -0.247968
v -2.950011 -0.162685 -5.835598
vn 1.0000 0.0087 0.0028
vn 1.0000 0.0088 0.0029
vn 1.0000 0.0058 -0.0000
vn 0.9999 0.0117 0.0057
g left_wall_left_wall_BloodyRed
usemtl BloodyRed
s 1
f 17//5 18//6 19//7
f 17//5 20//8 18//6
o right_wall
v 2.545989 -0.158233 -0.243599
v 2.545989 5.325314 -5.839967
v 2.545989 -0.162685 -5.835598
v 2.545989 5.329765 -0.247968
vn -1.0000 -0.0000 0.0000
g right_wall_right_wall_DarkGreen
usemtl DarkGreen
s 1
f 21//9 22//9 23//9
f 21//9 24//9 22//9
o short_box
v 1.245989 1.491249 -0.894913
v 0.145989 1.489601 -2.964912
v -0.354011 1.490859 -1.384912
v -0.354011 1.490859 -1.384912
v 0.145989 -0.160399 -2.963598
v -0.354011 -0.159141 -1.383599
v 1.245989 1.491249 -0.894913
v -0.354011 -0.159141 -1.383599
v 1.245989 -0.158750 -0.893599
v 1.725989 1.489975 -2.494912
v 1.245989 -0.158750 -0.893599
v 1.725989 -0.160024 -2.493598
v 0.145989 1.489601 -2.964912
v 1.725989 -0.160024 -2.493598
v 0.145989 -0.160399 -2.963598
v 1.725989 1.489975 -2.494912
v 0.145989 1.489601 -2.964912
v -0.354011 1.490859 -1.384912
v 1.245989 1.491249 -0.894913
v 1.725989 1.489975 -2.494912
vn 0.0000 1.0000 -0.0008
vn -0.9534 -0.0002 -0.3017
vn -0.2928 0.0008 0.9562
vn 0.9578 0.0002 0.2873
vn 0.2851 -0.0008 -0.9585
g short_box_short_box_Khaki
usemtl Khaki
s 1
f 25//10 26//10 27//10
f 28//11 29//11 30//11
f 31//12 32//12 33//12
f 34//13 35//13 36//13
f 37//14 38//14 39//14
f 25//10 40//10 26//10
f 28//11 41//11 29//11
f 31//12 42//12 32//12
f 34//13 43//13 35//13
f 37//14 44//14 38//14
o tall_box
v -0.104011 3.139410 -3.206226
v -2.174011 3.138534 -4.306225
v -1.684011 3.139800 -2.716226
v -1.684011 -0.160200 -2.713598
v -2.174011 3.138534 -4.306225
v -2.174011 -0.161465 -4.303598
v -2.174011 3.138534 -4.306225
v -0.594011 -0.161863 -4.803598
v -2.174011 -0.161465 -4.303598
v -0.594011 3.138136 -4.806225
v -0.104011 -0.160589 -3.203598
v -0.594011 -0.161863 -4.803598
v -0.104011 3.139410 -3.206226
v -1.684011 -0.160200 -2.713598
v -0.104011 -0.160589 -3.203598
v -0.594011 3.138136 -4.806225
v -1.684011 3.139800 -2.716226
v -0.594011 3.138136 -4.806225
v -0.104011 3.139410 -3.206226
v -1.684011 3.139800 -2.716226
vn 0.0000 1.0000 -0.0008
vn -0.9556 0.0002 0.2945
vn -0.3017 -0.0008 -0.9534
vn 0.9562 -0.0002 -0.2928
vn 0.2962 0.0008 0.9551
g tall_box_tall_box_Khaki
usemtl Khaki
s 1
f 45//15 46//15 47//15
f 48//16 49//16 50//16
f 51//17 52//17 53//17
f 54//18 55//18 56//18
f 57//19 58//19 59//19
f 45//15 60//15 46//15
f 48//16 61//16 49//16
f 51//17 62//17 52//17
f 54//18 63//18 55//18
f 57//19 64//19 58//19
